<svg id="Ebene_1" data-name="Ebene 1" xmlns="http://www.w3.org/2000/svg" viewBox="0 0 396 275"><defs><style>.cls-1{fill:#e2f1ee;}.cls-2{fill:#fff;}.cls-3,.cls-4,.cls-5,.cls-7,.cls-8{fill:none;stroke:#92c0b7;}.cls-3,.cls-4,.cls-8{stroke-linecap:round;}.cls-3,.cls-4,.cls-5,.cls-8{stroke-linejoin:round;}.cls-3{stroke-width:6px;}.cls-4,.cls-5{stroke-width:3px;}.cls-6{fill:#92c0b7;}.cls-7{stroke-miterlimit:10;}.cls-7,.cls-8{stroke-width:5px;}</style></defs><circle class="cls-1" cx="139" cy="138" r="135"/><rect class="cls-2" x="67.14" y="56.31" width="72" height="145.53"/><rect class="cls-2" x="135.14" y="78.31" width="64" height="123.87"/><path class="cls-3" d="M389.45,141.33c-17.48-4-29.13.61-32.69,17.32C373.55,166.19,383.93,159.25,389.45,141.33Z"/><path class="cls-4" d="M266.28,64.4c15.57-5.49,21.06,18.32,7.33,17.41h-33c-16.49,0-16.49-24.74,3.67-20.16C244.21,47,268.11,47.92,266.28,64.4Z"/><polyline class="cls-5" points="82.14 178.39 82.14 56.45 162.88 56.45 162.88 201.52 82.14 201.52"/><polyline class="cls-5" points="163.68 93.15 213.68 93.15 213.68 131.66"/><rect class="cls-5" x="97.57" y="78.59" width="50.83" height="15.43"/><rect class="cls-5" x="97.57" y="111.45" width="50.83" height="15.43"/><polyline class="cls-5" points="97.57 149.24 97.57 144.32 148.41 144.32 148.41 159.75 122.51 159.75"/><path class="cls-3" d="M344.48,167.39a138.25,138.25,0,0,1-181.59,33.67"/><path class="cls-6" d="M73,182.52a18.08,18.08,0,0,1,3.56,6.68c1,4.54,2,11.92,2,12A2.46,2.46,0,0,0,81,203.31h.09a2.47,2.47,0,0,0,2.39-1.95,52.43,52.43,0,0,1,2.66-9A37.56,37.56,0,0,1,89,187.89a24.7,24.7,0,0,0,3.1.2c4.35,0,11.32-1,16.81-6.5,8.22-8.22,8.3-21.88,8.3-22.46a2.79,2.79,0,0,0-2.79-2.79c-.63,0-14.42,0-22.57,8.19-6.9,6.9-6.62,16.31-6.25,19.72a44.11,44.11,0,0,0-3.81,5.85c-.13-.68-.27-1.34-.41-2a23,23,0,0,0-4.52-8.69c1.1-4,3.8-17.11-4.53-28.32-9.55-12.83-28.22-15.68-29-15.8a2.81,2.81,0,0,0-3.17,2.36c-.12.8-2.84,19.72,6.63,32.46C55.26,181.58,69.29,182.48,73,182.52Zm22.77-14c4.48-4.48,11.57-5.9,15.57-6.35-.46,4-1.92,11-6.43,15.49s-10.71,5-13.87,4.81C90.92,179.26,91.3,173,95.8,168.5Zm-50.4-27h0c5.24,1.26,16.31,4.78,22.43,13s4.82,18.24,3.89,22.37c-4.27-.28-14.36-1.85-20.46-10S45.08,146.9,45.4,141.47Z"/><path class="cls-3" d="M333.13,99c-10.49,21.73-7.86,38.4,13,48C361,127.24,355,111.56,333.13,99Z"/><path class="cls-3" d="M357.14,158.31c-3.24.64-10,6-13,9"/><path class="cls-3" d="M344.48,167.39a29.32,29.32,0,0,0,1.66-20.08"/><path class="cls-6" d="M243.1,179.25a20.79,20.79,0,1,0-20.79-20.79h0A20.81,20.81,0,0,0,243.1,179.25Zm0-36.95a16.17,16.17,0,1,1-16.17,16.16A16.16,16.16,0,0,1,243.1,142.3Z"/><path class="cls-3" d="M277.14,214.31c3.29-7,2.41-15.43-1.35-22.41-2.36-4.38-5.87-7.74-10.25-8.81-6.09-1.49-14.7,2.24-23.15,2.21-7.34,0-14.56-4-19.94-2.71-11.59,2.71-17.49,15-14.31,33.72"/><circle class="cls-7" cx="198.25" cy="166.38" r="13.89"/><path class="cls-8" d="M203.63,187.89c-15.24-2.68-21.52,0-21.76,11"/><path class="cls-4" d="M319.89,150.12c-5,11.58-3.28,20.24,7.83,24.84C335.09,164.29,331.61,156.22,319.89,150.12Z"/><path class="cls-4" d="M348.54,192.27c-6.43,6.38-12.67,7.48-18.64,1.25C335.11,185.81,341.41,186,348.54,192.27Z"/></svg>